<?xml version="1.0" encoding="utf-8"?>
<!-- Generator: Adobe Illustrator 16.0.0, SVG Export Plug-In . SVG Version: 6.00 Build 0)  -->
<!DOCTYPE svg PUBLIC "-//W3C//DTD SVG 1.1//EN" "http://www.w3.org/Graphics/SVG/1.1/DTD/svg11.dtd">
<svg version="1.1" xmlns="http://www.w3.org/2000/svg" xmlns:xlink="http://www.w3.org/1999/xlink" x="0px" y="0px"
	 width="320.96px" height="192.976px" viewBox="0 0 320.96 192.976" enable-background="new 0 0 320.96 192.976"
	 xml:space="preserve">
<g id="Shape_3_1_" enable-background="new    ">
	<g id="Shape_3">
		<g>
			<path fill="#F8F1D2" d="M189.749,10.987c0,0-66.828,0.223-66.918,0.221c-8.036,25.592-34.6,24.523-34.595,24.342
				C83.069,136.36,158.37,178.971,158.37,178.971s70.601-25.178,70.608-140.643C194.866,34.111,189.749,10.987,189.749,10.987z
				 M158.449,175.939c0,0-65.713-41.899-65.356-135.205c27.325-3.27,33.571-23.359,33.571-23.359l58.934-0.435
				c0,0,2.341,17.325,37.26,26.277C222.486,145.948,158.449,175.939,158.449,175.939z"/>
		</g>
	</g>
</g>
<g id="VIP_1_" enable-background="new    ">
	<g id="VIP">
		<g>
			<path fill-rule="evenodd" clip-rule="evenodd" fill="#F8F1D2" d="M134.72,42.119c0.095,0.786,0.189,1.572,0.284,2.36
				c1.62-0.247,3.717-0.568,4.696-0.47c-0.954,13.642-9.391,61.266-10.398,66.352c-1.416-4.654-11.505-49.866-11.729-51.674
				c0.765-1.399,3.362-4.41,4.359-5.44c0.069-0.833,0.137-1.666,0.206-2.5c-1.05,1.062-5.203,5.062-7.941,8.185
				c-2.497,2.75-4.881,5.624-6.21,7.279c0.055,0.579,0.111,1.16,0.167,1.743c1.344-1.308,2.082-1.705,2.644-1.992
				c1.8,1.159,14.965,57.643,16.792,66.039c0.456-2.065,15.697-86.988,17.006-89.738c1.341-1.15,2.171-1.867,3.159-2.613
				c0.081-0.889,0.161-1.777,0.242-2.667c-1.253,0.561-3.39,1.393-5.815,2.285C139.024,40.383,135.424,41.958,134.72,42.119z
				 M152.929,36.356c0.092,0.839,0.184,1.679,0.275,2.52c1,0.063,4.479,0.724,5.535,1.208c0.216,4.15,0.295,27.029,0.3,31.066
				c0.003,2.406,0.006,4.812,0.008,7.218c0.014,11.991-0.01,34.625-0.204,39.767c-1.056,0.492-4.466,1.694-5.317,1.862
				c-0.063,0.855-0.126,1.711-0.188,2.566c1.5-0.325,6.112-0.671,7.817-0.649c3.11-0.022,8.32,0.423,9.419,0.742
				c-0.079-0.854-0.157-1.709-0.236-2.563c-1-0.306-4.007-1.164-5.263-1.921c-0.193-2.448-0.195-22.863-0.157-38.752
				c0.006-2.526,0.012-5.052,0.018-7.578c0.036-15.034,0.122-29.209,0.34-31.638c1.897-0.36,4.478-0.959,5.528-0.999
				c0.092-0.835,0.185-1.669,0.277-2.502c-0.892,0.024-5.423-0.389-8.12-0.422C158.784,36.068,153.928,36.414,152.929,36.356z
				 M203.639,58.997c-2.236-4.436-6.104-9.27-11.497-12.97c-2.237-1.764-9.658-5.561-11.235-6.015c0.042,0.91,0.085,1.82,0.127,2.73
				c1.24,0.727,4.501,2.909,5.445,4.315c0.151,4.333-0.076,26.929-0.124,30.898c-0.021,1.654-0.041,3.308-0.062,4.962
				c-0.142,11.536-0.517,37.939-0.782,43.376c-2.645-0.747-4.78-1.481-5.533-1.309c-0.075,0.88,0.075,2.118,0,2.999
				c0.198-0.113,5.995,1.23,8.999,2c2.252,0.521,7.397,2.381,8.999,3.005c-0.071-0.824-0.142-1.65-0.213-2.478
				c-1.506-0.724-5.03-2.35-6.21-3.072c-0.15-3.523,0.171-31.37,0.308-41.61c0.022-1.687,0.045-3.374,0.067-5.06
				c0.138-10.36,0.416-27.441,0.66-30.792c2.175,1.452,4.681,4.128,6.229,7.28c2.393,4.917,3.716,11.756,3.641,18.527
				c-0.167,16.57-6.034,17.515-7.835,17.919c-0.062,0.964-0.124,1.927-0.187,2.893c1.78,0.141,7.065-0.547,10.213-5.483
				c1.919-3.059,3.276-7.245,3.331-14.396C207.987,74.098,207.675,67.236,203.639,58.997z"/>
		</g>
	</g>
</g>
<g id="Shape_1_copy_1_" enable-background="new    ">
	<g id="Shape_1_copy">
		<g>
			<path fill="#F8F1D2" d="M18.726,104.741c-0.872-0.297-1.771-2.155-1.771-2.155c-0.734-0.558-1.279,0.108-1.279,0.108
				c-1.367,3.859,1.159,7.687,1.159,7.687c0.181-0.371,1.786-3.511,1.815-3.52C18.685,106.848,19.597,105.045,18.726,104.741z
				 M10.462,80.15c0.774-0.386,4.172,0.67,4.172,0.67s0.89-0.026,0.959-0.849c0.077-0.896,1.031-2.521,1.031-2.521
				c0.547-1.06-0.667-1.482-0.667-1.482C11.231,74.878,10.462,80.15,10.462,80.15z M11.741,92.141
				c-0.189-1.063-0.827-0.685-0.826-0.681c-4.296,2.968-3.075,7.655-3.075,7.655c2.348-1.959,4.05-2.543,4.05-2.543
				s1.31-0.531,0.818-1.465C12.001,93.756,11.748,92.186,11.741,92.141z M7.346,31.979c1.779,1.246,3.417,3.458,3.417,3.458
				s1.195,1.232,1.487-0.097c0.3-1.326,1.93-2.386,1.93-2.386c0.173-0.193,1.082-0.213-0.292-1.858
				C11.88,28.696,5.564,30.732,7.346,31.979z M34.598,44.043c1.269,1.054,5.794,1.274,8.312-0.838
				c2.51-2.117,4.049-2.34,4.471-2.392c0.415-0.05,2.755,0.51,3.81-0.828c1.235-1.573,0.063-2.7,0.063-2.7
				c-0.975-1.452-5.607-0.27-9.095,0.284c-3.489,0.553-6.67-1.871-6.76-4.949c-0.018-0.467-0.277-1.486-0.363-1.636
				c-1.226-2.08-2.441,0.297-2.441,0.297C29.078,41.009,34.598,44.043,34.598,44.043z M47.047,35.685
				c1.102-0.606,3.323-0.274,3.323-0.274c2.485,0.655,2.943,2.346,2.817,3.706c-0.138,1.5-0.575,1.852-0.575,1.852
				c-1.078,1.599-5.442,1.373-5.442,1.373c-1.935-0.106-1.315,1.5-1.315,1.5c0.838,4.242,3.44,4.186,3.436,4.144
				c-0.005-0.044,1.028,0.396,2.068-0.124c1.051-0.517,1.855-0.594,1.855-0.594c3.242-0.025,5.787-0.492,6.743-0.861
				c2.228-0.845,1.543-1.597,2.292-2.06c0.859-0.529,0.875,0.453,0.875,0.491c0.001,0.704-0.901,2.162-2.424,2.582
				c-2.405,0.653-5.119,0.919-5.859,0.877c-0.46-0.021-0.296-0.12-1.254,0.049c-0.446,0.076-0.9,0.387-1.312,1.34
				c-0.469,1.089-2.422,1.952-4.717,2.708c-0.996,0.324-4.165,1.254-4.165,1.254c0.491,2.44,2.798,4.527,2.798,4.527
				c-1.904-0.631-6.139,1.819-6.139,1.819c1.133,6.625,7.478,5.208,7.478,5.208c0.608,1.526-0.813,2.426-0.813,2.426
				c3.893,3.875,7.995,1.396,7.995,1.396c-0.235,6.661,5.655,6.845,5.652,6.845c-0.319-3.447,1.125-5.775,1.125-5.775
				s1.406,1.083,3.693,3.298c2.293,2.221,5.081,0.761,5.081,0.761c-0.931-2.036-2.327-4.412-2.327-4.412s-2.443-4.307-0.23-2.981
				c2.213,1.325,3.85-0.254,3.85-0.254c-0.079-2.784-1.384-7.365-1.384-7.365c2.341,0.232,3.739-0.583,3.739-0.583
				c-0.668-4.438-2.578-7.864-2.578-7.864c1.607,0.105,3.455-1.069,3.455-1.069c-0.515-4.542-2.464-8.222-2.469-8.222
				c1.382-0.731,3.089-3.866,2.635-4.107c-0.452-0.248-1.241-1.103-2.296-3.9c-1.058-2.803-2.796-4.22-2.796-4.22
				c1.19-5.782-0.312-8.489-0.312-8.489c-2.646-0.581-5.886,2.006-5.886,2.006c-3.938-2.318-8.695-0.709-8.957-0.721
				s-2.089-0.007-2.343,2.174c-0.258,2.186,0.522,3.77,0.522,3.77s0.224,1.308,2.108,1.251c1.881-0.059,2.117-0.689,3.318-0.186
				c1.202,0.504,0.87,1.788,0.836,1.792c-0.029,0.004-0.208,1.401-2.229,0.961c-0.717-0.162-2.377-0.832-3.357-1.697
				c-1.032-0.915-1.497-2.207-1.881-2.663c-0.382-0.446-0.69-0.563-1.276-0.573c-1.311-0.036-6.165,1.345-6.165,1.345
				c-1.563,0.536-0.333,5.04-0.105,6.392C44.365,35.883,45.948,36.293,47.047,35.685z M22.25,30.688c0,0,2.548,0.551,3.221,0.213
				c0.68-0.343,0.391-1.086,0.391-1.086s-0.081-3.974-3.58-5.334c-0.578-0.219-0.831,4.249-0.559,5.064
				C21.747,29.622,21.836,30.478,22.25,30.688z M12.322,38.61c-0.323,2.706,3.089,5.045,3.089,5.045s-3.523-1.124-4.362-0.502
				c-0.839,0.615-1.152,2.522-1.105,3.642c0.062,1.583,0.36,2.605,0.36,2.605c0.89,4.367,8.169,2.561,8.169,2.561
				c0.762-0.23,1.128,0.403,0.939,0.895c-0.101,0.259-0.338,0.278-0.338,0.278c-2.981,1.225-3.571,3.083-3.571,3.083
				c1.36,3.708,6.563,1.96,6.563,1.96c0.779-0.009,0.796,1.19,0.796,1.19c-2.148,5.947,1.356,9.565,1.356,9.565
				c0.126-0.016,0.946-0.284,2.065-2.832c1.128-2.548,1.698-0.548,1.698-0.548c-1.768,8.563,2.781,11.627,2.781,11.627
				c1.827-2.113,1.967-5.83,1.967-5.83c1.063,3.54,4.004,5.282,5.595,5.017c0.937-0.159,1.037-1.65,1.037-1.65
				c0.012-2.583,1.305-8.334,1.305-8.334c0.061-0.008-11.909-10.638-14.075-17.112c-1.837-5.5-0.422-5.262,0.062-9.732
				c0.334-3.138-0.038-4.745-0.85-6.442c-0.917-1.911-3.516-1.555-5.002-0.945c-1.494,0.611-0.734,3.627-0.357,4.61
				c0.379,0.983-0.352,4.089-0.727,2.063c-0.376-2.018-0.856-2.731-1.481-3.605c-0.629-0.869-1.491-1.543-2.958-1.277
				C13.81,34.21,12.648,35.899,12.322,38.61z M9.443,50.323c0.019-4.138-1.069-5.04-1.069-5.04
				c-0.354-0.213-1.171,0.574-1.171,0.574s-4.082,7.729-2.13,7.148c1.945-0.584,2.4-1.153,3.391-1.617
				C9.447,50.921,9.443,50.323,9.443,50.323z M60.518,146.164c-0.206-0.884,0.151-2.92,0.151-2.92
				c0.161-1.286-1.049-1.052-1.049-1.047c-4.542,1.439-3.617,6.816-3.617,6.816c0.567-0.764,3.919-1.546,3.919-1.546
				S60.708,146.979,60.518,146.164z M59.887,157.581c-0.512-0.888-0.945-0.179-0.945-0.179c-2.78,5.187-0.171,8.873-0.171,8.873
				c1.401-3.15,2.708-4.65,2.707-4.646c0,0,0.969-1.237,0.234-1.829C60.648,158.936,59.911,157.617,59.887,157.581z M71.039,163.49
				c-0.836,0.308-2.3-0.757-2.3-0.757c-0.824-0.025-1.023,0.934-1.023,0.934c0.359,4.372,3.935,6.121,3.935,6.121
				c0.009-0.444,0.128-4.324,0.146-4.354C71.821,165.406,71.882,163.182,71.039,163.49z M103.876,64.438
				c-0.632-7.844-6.79-8.13-6.79-8.13s-9.047-1.486-8.452,9.894c0,0-3.492-7.929,4.045-11.254c1.964-0.867,5.421-3.668,6.645-5.456
				c0.975-1.433,7.456-8.654,1.239-17.971c0,0,0.066,1.839-0.388,3.531c-0.559,2.063-1.742,5.615-4.012,7.688
				c-2.829,2.581-5.472,4.631-5.455,5.604c0,0-2.827-0.738,3.729-6.314c5.001-4.249,5.302-14.36-0.612-19.846
				c-0.001-0.009,1.835,9.594-2.478,13.168c-2.724,2.246-5.712,6.677-6.179,8.194c0,0-1.919-1.577,3.571-7.663
				c3.714-4.122,2.494-13.306-1.582-14.103c0,0,1.415,4.296-2.298,8.975c-3.028,3.808-6.432,9.908-6.813,12.101
				c0,0-2.403,7.617,4.479,14.354c0,0-0.651,1.636-0.498,2.906c0.053,0.421-0.235,4.501,2.178,7.744c0,0-7.66-2.944-8.148,3.227
				c0,0-0.35,3.571,2.443,5.641c0,0,2.418-6.401,7.696-2.132c0,0-7.079-1.383-6.24,4.456c0.002,0-0.106,2.343,2.237,4.464
				c0,0,1.112-4.268,6.607-3.04c0,0-6.735,0.899-4.876,7.649c0,0,0.776,2.879,3.301,4.078c0,0-0.451-3.009,2.069-3.702
				c1.059-0.293,2.339-0.347,3.894,1.001c1.734,1.501,2.166,4.505,1.999,6.944c-0.147,2.144-0.793,3.826-0.87,3.976
				c-0.181,0.375-2.251,7.381-11.048,4.316c-1.151-0.405-3.01-1.921-4.375-3.767c-8.225-11.139-11.59-25.166-11.59-25.166
				s-2.618-0.37-5.35-3.783c0,0-0.876,2.731-0.493,5.356c0,0-6.103,0.22-7.895-6.231c0,0-5.211,0.847-8.463-3.407
				c0,0,0.835-1.137,0.892-1.232c0.008-0.017-1.826,0.255-3.852-1.121c-0.305-0.207-1.719,8.653-1.687,10.018
				c0.044,1.979-2.655,5.082-12.525,9.095c0,0-4.419,1.745-4.841-3.374c0,0-0.378-3.612-3.158-3.985
				c-2.787-0.377-3.422,4.614-3.422,4.614c-0.17,1.826,0.171,2.995,2.081,3.708c1.915,0.718,0.679,1.811,0.068,1.625
				c-0.607-0.181-2.462-2.024-4.168-0.525c-1.712,1.499-1.23,4.37-1.235,4.882c-0.004,0.519,0.366,4.093,2.704,4.585
				c0,0,1.184,0.446,1.971-0.719c1.021-1.501,3.243-1.467,3.243-1.467s-0.265,1.585-2.525,2.288
				c-2.259,0.708-1.333,4.039-1.174,4.271c0.158,0.241,1.398,4.053,4.434,3.774c3.03-0.282,3.625-4.492,3.698-5.013
				c0.061-0.527,0.29-2.964,1.673-3.392c1.385-0.422,1.523,1.276,1.523,1.276s0.299,2.465,0.042,3.612c0,0,3.694,0.847,4.453-7.946
				c0,0,0.9-2.772,3.56,0.862c2.662,3.636,6.914,0.021,6.794-1.513c0,0-2.72-0.255-3.173-3.055c-0.262-1.608,0.752-1.3,0.983-0.985
				c0.237,0.317,4.729,5.111,8.044,1.264c0,0-1.627-2.285-2.634-3.465c-1.086-1.271,0.172-1.663,0.64-1.562
				c0.845,0.167,15.279,0.571,19.683,11.06c0,0,1.753,2.111,0.651,6.468c-1.104,4.353-5.312,9.94-3.176,28.106
				c0,0,0.059,3.183,3.075,1.694c0,0,3.979-1.345,7.46-4.09c1.545-1.217,1.418,0.944,1.345,0.872
				c-0.075-0.083-0.192,5.962-3.951,11.494c0,0-0.47,2.042-5.714,1.295c0,0-3.982-2.184-4.595,1.336c0,0-0.257,1.669-0.287,3.568
				c-0.032,1.896,0.467,2.76,3.028,2.388c0.912-0.131,0.727,1.134,0.134,1.104c-0.064-0.008-4.728,0.315-4.992,2.926
				c-0.099,1.032-0.443,1.796,0.721,3.785c0.987,1.695,2.814,2.761,2.75,2.768c-0.065,0.01,1.568,0.588,2.409-0.547
				c0-0.004,1.594-1.917,1.955-3.769c0.532-2.729,1.296-0.074,1.004,0.74c-0.294,0.81-2.979,3.006-0.292,5.242
				c0,0,5.617,4.251,6.629-1.878c0.423-2.533-0.418-3.999-0.092-6.708c0.324-2.711,1.212-2.906,1.754-2.708
				c0.547,0.191,1.48-0.18,3.48,4.482c0,0,2.194-8.788-1.064-11.491c0,0,1.164-2.212,4.259-2.499c3.096-0.292,4.42-6.563,4.42-6.563
				s-2.487,1.446-5.02,1.084c-1.442-0.205-0.492-1.361-0.492-1.361s0.477-1.178,4.228-2.232c2.959-0.838,3.234-6.679,3.234-6.679
				s-3.718,1.987-5.015,1.127c-1.144-0.766,0.948-1.973,1.279-2.099c0.842-0.317,5.427-2.813,5.075-7.33
				c0,0-2.426-0.913-6.731,0.946c-4.036,1.738-6.919,2.646-8.264,2.81c-1.353,0.164-1.623-1.004-1.321-1.733
				c0.3-0.729,1.564-4.323,1.417-9.817c0,0,11.499,10.925,20.071-0.105c3.691-4.75,8.249-13.533-1.815-29.481
				c-1.214-1.926-3.133-5.393-1.58-9.801c0,0,0.685-2.754,3.5-2.318c2.435,0.374,3.139,3.84,2.268,6.871
				C98.94,73.217,104.58,73.227,103.876,64.438z M59.406,127.868c0.952-6.661-0.958-12.2-0.958-12.2
				c-0.16-2.903-1.191-6.569,1.334-8.34c2.524-1.772,4.568,1.362,4.564,1.362c0.268-1.025,2.194-6.921,2.194-6.921
				c-4.466-5.141-8.25-7.263-8.386-7.33c-0.141-0.071-7.69-3.724-9.646,2.719c-1.226,4.024,1.532,12.135,3.531,17.688
				c1.197,3.323,1.922,5.759,1.918,5.76c-2.119,0.257-3.889,0.209-9.579,0.56c-5.697,0.346-6.137-3.05-6.674-3.929
				c-0.244-0.4-0.561-7.078-4.036-5.063c-5.252,3.048-2.705,6.483-2.705,6.483c0.393,0.516,2.474,2.106,2.611,2.178
				c0.145,0.073,0.744,1.287-0.366,1.255c-1.113-0.039-2.102-1.728-3.235-1.936c-1.132-0.201-1.724-0.221-2.501,1.421
				c-0.775,1.646-0.392,4.273,0.501,6.832c0.9,2.561,3.187,0.469,3.557,0.257c0.362-0.216,1.452-1.47,2.311-0.803
				c0.867,0.677,0.47,1.155,0.1,1.372c-0.364,0.218-2.206,0.611-2.801,2.146c-0.596,1.538,0.006,3.272,0.006,3.272
				s1.788,4.002,3.856,3.839c2.063-0.164,2.154-1.037,3.498-4.476c1.345-3.433,1.622-2.776,1.888-3.238
				c0.271-0.467,1.524-0.875,1.789,0.213c0.82,3.385-1.114,4.782-1.114,4.782c4.788,1.314,6.34-5.76,6.34-5.76
				s0.803-1.476,1.425,0.427c0.918,2.818-0.67,5.251-0.67,5.251c4.464,0.233,5.58-5.591,5.58-5.587c0,0,0.629-1.282,1.127,0.128
				c0.823,2.321-0.343,4.687-0.343,4.687S58.454,134.527,59.406,127.868z M29.744,114.2c0.249-0.817,1.511-2.037,1.511-2.037
				c0.747-0.821-0.36-1.638-0.358-1.629c-4.431-2.655-6.236,2.089-6.236,2.089c0.835-0.102,3.965,2.055,3.965,2.055
				S29.506,114.957,29.744,114.2z M25.935,123.915c-0.002-1.072-0.697-0.899-0.697-0.899c-4.767,1.564-4.371,6.418-4.371,6.418
				c2.657-1.173,4.443-1.218,4.443-1.218s1.39-0.135,1.066-1.166C25.907,125.545,25.93,123.961,25.935,123.915z M31.302,137.563
				c-0.837-0.457-1.532-2.446-1.532-2.446c-0.671-0.69-1.291-0.143-1.291-0.143c-1.79,3.533,0.321,7.755,0.321,7.755
				c0.224-0.333,2.167-3.105,2.199-3.108C31.03,139.616,32.142,138.018,31.302,137.563z"/>
		</g>
	</g>
</g>
<g id="Shape_1_copy_2_1_" enable-background="new    ">
	<g id="Shape_1_copy_2">
		<g>
			<path fill="#F8F1D2" d="M242.459,41.779c-0.005-0.001-1.946,3.673-2.46,8.21c0,0,1.84,1.173,3.441,1.067
				c0,0-1.902,3.42-2.568,7.853c0,0,1.394,0.813,3.726,0.582c0,0-1.3,4.575-1.379,7.355c0,0,1.631,1.576,3.835,0.254
				c2.205-1.324-0.229,2.976-0.229,2.976s-1.392,2.373-2.318,4.406c0,0,2.777,1.458,5.063-0.761
				c2.277-2.212,3.679-3.293,3.679-3.293s1.438,2.326,1.121,5.768c-0.004,0,5.864-0.184,5.63-6.835c0,0,4.086,2.476,7.965-1.395
				c0,0-1.415-0.899-0.81-2.422c0,0,6.321,1.415,7.449-5.2c0,0-4.218-2.446-6.115-1.817c0,0,2.298-2.083,2.788-4.519
				c0,0-3.158-0.929-4.149-1.253c-2.286-0.754-4.231-1.617-4.699-2.704c-0.41-0.951-0.862-1.262-1.308-1.338
				c-0.954-0.168-0.79-0.069-1.248-0.048c-0.737,0.041-3.441-0.225-5.837-0.876c-1.518-0.42-2.417-1.876-2.415-2.578
				c-0.001-0.038,0.016-1.02,0.872-0.49c0.746,0.461,0.064,1.212,2.283,2.056c0.952,0.369,3.488,0.835,6.718,0.86
				c0,0,0.802,0.076,1.849,0.592c1.036,0.519,2.065,0.079,2.061,0.124c-0.006,0.042,2.587,0.098,3.423-4.138
				c0,0,0.617-1.605-1.311-1.499c0,0-4.349,0.226-5.422-1.371c0,0-0.436-0.351-0.573-1.849c-0.126-1.357,0.331-3.046,2.806-3.7
				c0,0,2.213-0.332,3.311,0.273c1.096,0.607,2.673,0.198,2.9-1.145c0.227-1.35,1.452-5.847-0.104-6.382
				c0,0-4.836-1.378-6.143-1.343c-0.583,0.011-0.891,0.127-1.271,0.573c-0.383,0.455-0.846,1.745-1.875,2.659
				c-0.975,0.864-2.63,1.532-3.344,1.694c-2.014,0.439-2.191-0.956-2.221-0.959c-0.033-0.004-0.364-1.287,0.833-1.79
				c1.198-0.502,1.432,0.127,3.306,0.186c1.878,0.057,2.101-1.25,2.101-1.25s0.776-1.581,0.521-3.765
				c-0.254-2.176-2.074-2.181-2.335-2.169s-5.001-1.596-8.923,0.72c0,0-3.228-2.584-5.864-2.003c0,0-1.496,2.703-0.311,8.477
				c0,0-1.731,1.415-2.785,4.214c-1.052,2.793-1.837,3.647-2.287,3.894C239.382,37.919,241.081,41.048,242.459,41.779z
				 M254.845,157.787c-0.023,0.035-0.758,1.351-1.818,2.216c-0.731,0.591,0.233,1.826,0.233,1.826
				c-0.001-0.005,1.301,1.493,2.696,4.639c0,0,2.6-3.681-0.17-8.859C255.786,157.608,255.354,156.9,254.845,157.787z
				 M263.445,37.667c0,0-1.167,1.125,0.063,2.696c1.052,1.336,3.382,0.777,3.796,0.827c0.421,0.051,1.954,0.273,4.454,2.388
				c2.508,2.11,7.016,1.889,8.28,0.836c0,0,5.498-3.029,1.996-12.743c0,0-1.211-2.372-2.433-0.295
				c-0.086,0.149-0.344,1.166-0.361,1.633c-0.09,3.073-3.259,5.493-6.735,4.942C269.032,37.397,264.416,36.217,263.445,37.667z
				 M246.026,162.931c0,0-1.458,1.063-2.291,0.756c-0.84-0.308-0.78,1.914-0.756,1.941c0.019,0.029,0.137,3.904,0.146,4.348
				c0,0,3.562-1.747,3.919-6.112C247.045,163.863,246.847,162.906,246.026,162.931z M289.132,31.292
				c0.671,0.337,3.209-0.214,3.209-0.214c0.412-0.209,0.501-1.063,0.524-1.14c0.271-0.814,0.02-5.277-0.557-5.058
				c-3.485,1.358-3.566,5.327-3.566,5.327S288.454,30.949,289.132,31.292z M298.608,76.293c0,0-1.208,0.423-0.664,1.48
				c0,0,0.95,1.622,1.026,2.516c0.069,0.822,0.956,0.849,0.956,0.849s3.385-1.055,4.156-0.669
				C304.083,80.469,303.317,75.205,298.608,76.293z M300.38,33.343c0,0,1.622,1.059,1.922,2.383
				c0.291,1.327,1.481,0.097,1.481,0.097s1.632-2.21,3.404-3.454c1.775-1.246-4.517-3.278-6.517-0.88
				C299.301,33.131,300.207,33.151,300.38,33.343z M288.014,49.635c-2.158,6.464-14.082,17.08-14.021,17.087
				c0,0,1.288,5.742,1.3,8.321c0,0,0.1,1.49,1.033,1.648c1.586,0.266,4.516-1.475,5.575-5.01c0,0,0.139,3.712,1.959,5.823
				c0,0,4.531-3.061,2.771-11.61c0,0,0.567-1.999,1.691,0.547c1.116,2.543,1.932,2.812,2.058,2.827c0,0,3.49-3.612,1.351-9.551
				c0,0,0.017-1.198,0.794-1.188c0,0,5.184,1.746,6.538-1.957c0,0-0.588-1.856-3.558-3.078c0,0-0.237-0.02-0.337-0.278
				c-0.188-0.49,0.177-1.124,0.936-0.894c0,0,7.252,1.804,8.139-2.557c0,0,0.298-1.021,0.359-2.601
				c0.046-1.119-0.266-3.023-1.102-3.637c-0.836-0.621-4.346,0.501-4.346,0.501s3.398-2.336,3.077-5.038
				c-0.324-2.708-1.482-4.393-2.947-4.66c-1.461-0.266-2.318,0.407-2.946,1.275c-0.622,0.873-1.1,1.585-1.475,3.6
				c-0.373,2.023-1.103-1.079-0.724-2.061c0.375-0.982,1.132-3.995-0.356-4.604c-1.48-0.609-4.069-0.964-4.982,0.943
				c-0.81,1.695-1.18,3.299-0.847,6.432C288.435,44.381,289.844,44.143,288.014,49.635z M284.645,120.413
				c-1.13,0.209-2.114,1.895-3.223,1.934c-1.106,0.032-0.509-1.181-0.365-1.254c0.137-0.071,2.21-1.659,2.601-2.174
				c0,0,2.538-3.431-2.694-6.476c-3.461-2.01-3.776,4.658-4.02,5.058c-0.536,0.877-0.975,4.268-6.65,3.923
				c-5.668-0.35-7.432-0.303-9.542-0.559c-0.004-0.001,0.719-2.433,1.911-5.751c1.992-5.545,4.738-13.644,3.518-17.662
				c-1.948-6.433-9.469-2.786-9.609-2.715c-0.136,0.067-3.904,2.186-8.354,7.319c0,0,1.92,5.887,2.187,6.911
				c-0.004,0,2.032-3.13,4.547-1.36c2.516,1.768,1.489,5.428,1.329,8.327c0,0-1.901,5.531-0.954,12.182
				c0.948,6.65,4.864,7.038,4.864,7.038s-1.162-2.361-0.342-4.679c0.496-1.408,1.123-0.128,1.123-0.128
				c0.001-0.005,1.112,5.812,5.56,5.577c0,0-1.583-2.428-0.668-5.242c0.619-1.899,1.419-0.427,1.419-0.427s1.547,7.064,6.316,5.752
				c0,0-1.927-1.396-1.109-4.775c0.263-1.086,1.513-0.679,1.781-0.212c0.265,0.461,0.541-0.194,1.881,3.233
				c1.339,3.433,1.429,4.305,3.485,4.469c2.061,0.162,3.841-3.833,3.841-3.833s0.601-1.732,0.007-3.269
				c-0.593-1.531-2.428-1.924-2.791-2.142c-0.368-0.217-0.764-0.694,0.1-1.371c0.855-0.665,1.941,0.587,2.303,0.802
				c0.368,0.212,2.646,2.301,3.543-0.256c0.89-2.555,1.271-5.178,0.5-6.822C286.362,120.194,285.773,120.212,284.645,120.413z
				 M303.633,91.763c0-0.004-0.635-0.383-0.823,0.68c-0.007,0.044-0.26,1.612-0.963,2.961c-0.489,0.932,0.814,1.463,0.814,1.463
				s1.696,0.583,4.035,2.54C306.696,99.406,307.913,94.726,303.633,91.763z M255.111,142.426c0.001-0.005-1.204-0.239-1.045,1.044
				c0,0,0.355,2.033,0.15,2.917c-0.189,0.813,0.594,1.301,0.594,1.301s3.34,0.781,3.904,1.544
				C258.715,149.231,259.636,143.862,255.111,142.426z M297.615,102.872c0,0-0.896,1.855-1.764,2.152
				c-0.868,0.304,0.04,2.104,0.074,2.117c0.03,0.008,1.629,3.144,1.809,3.514c0,0,2.516-3.822,1.154-7.675
				C298.889,102.98,298.347,102.315,297.615,102.872z M307.33,46.227c0,0-0.813-0.786-1.167-0.573c0,0-1.083,0.9-1.064,5.032
				c0,0-0.004,0.599,0.976,1.065c0.986,0.463,1.44,1.031,3.378,1.615C311.396,53.944,307.33,46.227,307.33,46.227z M295.916,87.395
				c-0.607,0.187-1.84-0.905,0.068-1.622c1.902-0.713,2.243-1.881,2.073-3.704c0,0-0.632-4.983-3.409-4.607
				c-2.769,0.373-3.146,3.979-3.146,3.979c-0.421,5.111-4.823,3.369-4.823,3.369c-9.833-4.007-12.522-7.105-12.478-9.082
				c0.032-1.363-1.377-10.209-1.68-10.002c-2.019,1.374-3.846,1.103-3.838,1.119c0.057,0.095,0.89,1.23,0.89,1.23
				c-3.24,4.249-8.432,3.402-8.432,3.402c-1.785,6.443-7.865,6.223-7.865,6.223c0.382-2.622-0.491-5.348-0.491-5.348
				c-2.722,3.408-5.33,3.777-5.33,3.777s-3.353,14.006-11.546,25.129c-1.359,1.843-3.212,3.356-4.358,3.762
				c-8.764,3.06-10.827-3.937-11.007-4.311c-0.076-0.149-0.719-1.829-0.866-3.97c-0.166-2.435,0.264-5.435,1.991-6.935
				c1.549-1.346,2.824-1.292,3.879-0.999c2.511,0.691,2.062,3.696,2.062,3.696c2.516-1.196,3.288-4.071,3.288-4.071
				c1.853-6.741-4.857-7.639-4.857-7.639c5.476-1.227,6.582,3.035,6.582,3.035c2.335-2.117,2.229-4.458,2.229-4.457
				c0.835-5.83-6.217-4.449-6.217-4.449c5.258-4.262,7.667,2.129,7.667,2.129c2.782-2.067,2.434-5.633,2.434-5.633
				c-0.485-6.16-8.117-3.221-8.117-3.221c2.404-3.238,2.117-7.313,2.17-7.732c0.153-1.269-0.495-2.902-0.495-2.902
				c6.855-6.727,4.462-14.332,4.462-14.332c-0.381-2.19-3.771-8.281-6.788-12.083c-3.699-4.671-2.289-8.962-2.289-8.962
				c-4.062,0.796-5.277,9.967-1.576,14.082c5.47,6.078,3.557,7.652,3.557,7.652c-0.465-1.516-3.441-5.939-6.155-8.182
				c-4.297-3.57-2.468-13.158-2.469-13.149c-5.893,5.477-5.593,15.574-0.61,19.817c6.532,5.567,3.715,6.305,3.715,6.305
				c0.018-0.971-2.615-3.019-5.434-5.596c-2.262-2.069-3.44-5.617-3.996-7.676c-0.453-1.689-0.388-3.526-0.388-3.526
				c-6.193,9.302,0.263,16.514,1.234,17.945c1.22,1.784,4.663,4.582,6.62,5.447c7.509,3.321,4.029,11.238,4.029,11.238
				c0.594-11.362-8.42-9.879-8.42-9.879s-6.135,0.286-6.765,8.118c-0.7,8.776,4.917,8.767,4.917,8.767
				c-0.867-3.026-0.167-6.487,2.26-6.861c2.804-0.436,3.486,2.314,3.486,2.314c1.548,4.402-0.365,7.864-1.574,9.787
				c-10.025,15.926-5.485,24.695-1.808,29.438c8.54,11.015,19.995,0.104,19.995,0.104c-0.146,5.487,1.112,9.076,1.412,9.804
				c0.301,0.729,0.031,1.896-1.315,1.731c-1.341-0.163-4.212-1.07-8.233-2.807c-4.289-1.856-6.706-0.944-6.706-0.944
				c-0.351,4.511,4.217,7.003,5.056,7.319c0.33,0.126,2.415,1.331,1.274,2.096c-1.292,0.859-4.996-1.125-4.996-1.125
				s0.273,5.831,3.222,6.669c3.737,1.053,4.212,2.229,4.212,2.229s0.946,1.154-0.49,1.358c-2.523,0.362-5.001-1.082-5.001-1.082
				s1.319,6.261,4.403,6.553c3.084,0.287,4.243,2.495,4.243,2.495c-3.246,2.699-1.061,11.474-1.061,11.474
				c1.992-4.654,2.922-4.283,3.467-4.475c0.541-0.198,1.426-0.003,1.748,2.703c0.325,2.706-0.513,4.169-0.092,6.699
				c1.009,6.119,6.604,1.875,6.604,1.875c2.677-2.233,0.002-4.427-0.291-5.235c-0.291-0.813,0.471-3.465,1-0.738
				c0.36,1.849,1.949,3.759,1.948,3.763c0.837,1.133,2.465,0.555,2.399,0.547c-0.063-0.008,1.757-1.071,2.74-2.764
				c1.159-1.987,0.816-2.75,0.719-3.78c-0.264-2.606-4.909-2.93-4.974-2.922c-0.591,0.03-0.775-1.233,0.134-1.102
				c2.551,0.371,3.048-0.493,3.016-2.385c-0.03-1.897-0.286-3.563-0.286-3.563c-0.61-3.515-4.577-1.334-4.577-1.334
				c-5.225,0.746-5.692-1.293-5.692-1.293c-3.745-5.523-3.861-11.561-3.936-11.478c-0.074,0.073-0.2-2.086,1.339-0.871
				c3.467,2.741,7.432,4.084,7.432,4.084c3.005,1.486,3.063-1.691,3.063-1.691c2.127-18.14-2.065-23.719-3.164-28.065
				c-1.098-4.352,0.648-6.458,0.648-6.458c4.388-10.473,18.769-10.877,19.609-11.044c0.466-0.102,1.719,0.29,0.637,1.56
				c-1.003,1.178-2.624,3.46-2.624,3.46c3.303,3.841,7.778-0.945,8.015-1.263c0.229-0.313,1.24-0.621,0.979,0.984
				c-0.451,2.796-3.161,3.051-3.161,3.051c-0.119,1.531,4.117,5.141,6.769,1.51c2.649-3.628,3.547-0.86,3.547-0.86
				c0.756,8.779,4.436,7.935,4.436,7.935c-0.256-1.145,0.043-3.606,0.043-3.606s0.138-1.696,1.518-1.275
				c1.379,0.428,1.606,2.861,1.667,3.387c0.071,0.52,0.665,4.724,3.684,5.004c3.024,0.279,4.26-3.526,4.417-3.768
				c0.158-0.231,1.08-3.558-1.17-4.265c-2.252-0.7-2.516-2.284-2.516-2.284s2.212-0.034,3.23,1.465
				c0.784,1.163,1.963,0.718,1.963,0.718c2.33-0.492,2.698-4.061,2.694-4.579c-0.005-0.512,0.476-3.378-1.23-4.875
				C298.369,85.374,296.521,87.214,295.916,87.395z M284.849,135.354c0,0-0.693,1.986-1.527,2.443
				c-0.836,0.454,0.271,2.05,0.302,2.054c0.031,0.004,1.969,2.771,2.191,3.104c0,0,2.102-4.215,0.318-7.742
				C286.133,135.213,285.518,134.665,284.849,135.354z M289.363,123.271c0,0-0.692-0.173-0.693,0.898
				c0.005,0.045,0.026,1.628-0.44,3.13c-0.323,1.03,1.062,1.165,1.062,1.165s1.78,0.045,4.427,1.216
				C293.718,129.681,294.112,124.834,289.363,123.271z M284.874,114.469c0.238,0.757,1.114,0.477,1.114,0.477
				s3.117-2.152,3.95-2.052c0,0-1.799-4.736-6.212-2.085c0.001-0.009-1.102,0.806-0.357,1.625
				C283.369,112.434,284.626,113.653,284.874,114.469z"/>
		</g>
	</g>
</g>
<g id="Shape_2_1_" enable-background="new    ">
	<g id="Shape_2">
		<g>
			<path fill="#F8F1D2" d="M74.784,176.907c-8.254-2.613-18.024-8.147-23.017-13.648c-1.372-1.517-1.313-3.157,0.458-3.278
				c0.872-0.065,1.854,1.198,2.868,1.761c1.058,0.585,1.701,0.132,1.737-0.711c0.139-1.58-2.344-2.854-3.517-3.112
				c-1.386-0.313-3.978-0.676-4.603,1.384c-1.043,3.442,4.007,8.556,13.009,13.995c6.866,4.148,16.255,4.744,17.583,13.142
				C80.951,183.418,79.364,179.809,74.784,176.907z M57.543,160.64c0.488-3.698,2.063-8.057,3.642-11.075
				c-0.137-1.191-2.347-2.001-3.247-1.19c-5.605,6.866-9.216,7.934-9.032,9.696C50.499,155.357,57.623,157.033,57.543,160.64z
				 M142.628,172.576c-5.201-2.255-9.865-7.945-14.504-8.986c-6.947-0.803-15.624,5.551-30.25,5.918
				c-12.381,0.306-24.263-2.28-38.356-13.228c-0.807,1.902-1.176,4.301-1.531,5.783c-0.676,1.843-2.847,0.709-3.914-0.364
				c-1.271-1.275-2.277-0.539-1.744,0.414c0.94,1.225,0.653,1.15,3.278,3.319c10.862,8.985,27.737,15.15,45.188,15.471
				C114.642,181.17,131.487,170.094,142.628,172.576z M132.315,173.902c0.697,0.853,0.354,1.503,3.844,0.422
				c2.555-0.791,5.354,1.139,6.786-1.308C141.211,172.455,137.228,172.579,132.315,173.902z M133.939,175.32
				c-2.062,0.339-2.198-0.739-2.102-1.255l-1.992,0.563c0.216,4.349,20.267,1.227,22.196,8.15
				C152.723,179.315,143.838,173.663,133.939,175.32z"/>
		</g>
	</g>
</g>
<g id="Shape_2_copy_2_1_" enable-background="new    ">
	<g id="Shape_2_copy_2">
		<g>
			<path fill="#F8F1D2" d="M183.818,173.974c3.473,1.071,3.132,0.428,3.825-0.417c-4.889-1.311-8.854-1.434-10.578-0.877
				C178.49,175.102,181.275,173.19,183.818,173.974z M186.026,174.96c-9.851-1.641-18.692,3.956-18.015,7.386
				c1.921-6.856,21.874-3.765,22.089-8.071l-1.983-0.557C188.214,174.228,188.078,175.296,186.026,174.96z M270.649,157.879
				c0.183-1.746-3.41-2.802-8.988-9.602c-0.896-0.803-3.097-0.001-3.231,1.179c1.571,2.989,3.138,7.305,3.623,10.967
				C261.975,156.852,269.064,155.192,270.649,157.879z M267.243,161.882c0.531-0.943-0.471-1.672-1.735-0.409
				c-1.062,1.063-3.223,2.185-3.895,0.36c-0.354-1.469-0.721-3.843-1.524-5.727c-14.025,10.84-25.85,13.4-38.171,13.099
				c-14.557-0.364-23.19-6.656-30.104-5.86c-4.616,1.03-9.258,6.666-14.434,8.898c11.087-2.458,27.851,8.51,41.63,8.246
				c17.368-0.318,34.161-6.423,44.971-15.32C266.594,163.021,266.309,163.095,267.243,161.882z M270.844,159.099
				c-0.622-2.039-3.201-1.681-4.58-1.371c-1.167,0.256-3.638,1.518-3.5,3.082c0.035,0.835,0.676,1.283,1.729,0.704
				c1.01-0.558,1.986-1.809,2.854-1.744c1.763,0.12,1.821,1.745,0.456,3.247c-4.969,5.447-14.691,10.928-22.906,13.515
				c-4.558,2.873-6.137,6.448-4.498,9.438c1.322-8.314,10.666-8.905,17.498-13.014C266.855,167.57,271.882,162.507,270.844,159.099z
				"/>
		</g>
	</g>
</g>
</svg>
